# xmcd
#
# Track frame offsets:
#	150
#	14970
#	28567
#	43665
#	54690
#	70592
#	87950
#	102235
#	115737
#	128405
#
# Disc length: 1906 seconds
#
# Revision: 0
# Processed by: cddbd v1.5.2PL0 Copyright (c) Steve Scherf et al.
# Submitted via: audiograbber 1.83.01
#
DISCID=7f07700a
DTITLE=Various Artist - Super Hits Of The '80s
DYEAR=1997
DGENRE=Country
TTITLE0=George Jones - He Stopped Loving Her Today
TTITLE1=Merle Haggard - Big City
TTITLE2=Ricky Van Shelton - Somebody Lied
TTITLE3=Vern Gosdin - Set 'Em Up Joe
TTITLE4=Willie Nelson - Always On My Mind
TTITLE5=Ricky Skaggs - Country Boy
TTITLE6=Rosanne Cash - Tennessee Flat Top Box
TTITLE7=Shenandoah - The Church On Cumberland Road
TTITLE8=Exile - Give Me One More Chance
TTITLE9=Crystal Gayle - If You Ever Change Your Mind
EXTD=YEAR: 1997 ID3G: 2
EXTT0=
EXTT1=
EXTT2=
EXTT3=
EXTT4=
EXTT5=
EXTT6=
EXTT7=
EXTT8=
EXTT9=
PLAYORDER=
